<?xml version="1.0" standalone="no"?>
<!DOCTYPE svg PUBLIC "-//W3C//DTD SVG 20010904//EN"
 "http://www.w3.org/TR/2001/REC-SVG-20010904/DTD/svg10.dtd">
<svg version="1.0" xmlns="http://www.w3.org/2000/svg"
 width="892.000000pt" height="892.000000pt" viewBox="0 0 892.000000 892.000000"
 preserveAspectRatio="xMidYMid meet">
<metadata>
Created by potrace 1.11, written by Peter Selinger 2001-2013
</metadata>
<g transform="translate(0.000000,892.000000) scale(0.100000,-0.100000)"
fill="#000000" stroke="none">
<path d="M1270 5398 c0 -735 -10 -1170 -30 -1312 -42 -296 -151 -466 -338
-523 -190 -58 -454 -27 -666 78 -43 22 -80 38 -81 37 -1 -2 -27 -88 -57 -193
l-56 -190 26 -22 c65 -55 231 -120 381 -150 116 -23 399 -23 527 1 446 81 674
352 738 881 28 228 36 520 36 1328 l0 787 -240 0 -240 0 0 -722z"/>
<path d="M3133 4641 c-541 -813 -983 -1482 -983 -1485 0 -4 75 -5 167 -4 l167
3 973 1465 c536 806 979 1473 984 1483 9 16 -1 17 -158 17 l-168 0 -982 -1479z"/>
<path d="M4570 6112 c0 -4 274 -671 609 -1482 l608 -1475 208 0 208 0 271 648
c149 356 273 647 276 647 3 0 127 -292 275 -650 l270 -650 205 0 206 0 604
1463 c332 804 606 1472 608 1485 l4 22 -258 0 -259 0 -454 -1193 c-250 -655
-457 -1195 -460 -1199 -6 -7 -434 1036 -434 1057 0 7 443 1171 498 1308 7 16
-6 17 -220 15 l-228 -3 -178 -489 c-99 -269 -181 -491 -182 -493 -2 -1 -83
220 -182 492 l-178 495 -224 0 c-165 0 -223 -3 -223 -12 0 -6 113 -303 250
-659 138 -357 250 -651 250 -655 0 -10 -421 -1048 -429 -1056 -3 -4 -213 533
-465 1192 l-459 1200 -259 0 c-142 0 -258 -3 -258 -8z"/>
</g>
</svg>
